<?xml version="1.0" standalone="no"?>
<!DOCTYPE svg PUBLIC "-//W3C//DTD SVG 20010904//EN"
 "http://www.w3.org/TR/2001/REC-SVG-20010904/DTD/svg10.dtd">
<svg version="1.0" xmlns="http://www.w3.org/2000/svg"
 width="260.000000pt" height="260.000000pt" viewBox="0 0 260.000000 260.000000"
 preserveAspectRatio="xMidYMid meet">
<metadata>
Created by potrace 1.14, written by Peter Selinger 2001-2017
</metadata>
<g transform="translate(0.000000,260.000000) scale(0.100000,-0.100000)"
fill="#000000" stroke="none">
<path d="M1095 2554 c-406 -70 -756 -328 -939 -692 -42 -84 -102 -256 -111
-322 -4 -24 -8 -47 -11 -51 -11 -18 -15 -255 -5 -334 17 -147 27 -188 77 -322
152 -408 519 -715 954 -800 91 -17 141 -21 265 -18 77 1 149 5 160 8 11 2 40
8 65 12 131 21 333 106 463 194 62 42 165 126 201 164 97 102 187 232 240 348
58 126 74 173 102 299 19 87 27 350 13 426 -5 27 -12 65 -15 84 -9 59 -71 234
-110 312 -120 239 -308 431 -545 557 -101 53 -231 102 -319 120 -30 6 -68 13
-85 17 -62 13 -320 12 -400 -2z"/>
</g>
</svg>
